<svg xmlns="http://www.w3.org/2000/svg" viewBox="0 0 120 120" role="img" aria-label="LexiLand mascot Lexi">
  <defs>
    <linearGradient id="head" x1="20%" x2="80%" y1="0%" y2="100%">
      <stop offset="0%" stop-color="#ffd93d"/>
      <stop offset="55%" stop-color="#ff8e53"/>
      <stop offset="100%" stop-color="#ff6b6b"/>
    </linearGradient>
    <linearGradient id="book-left" x1="0%" x2="100%" y1="0%" y2="100%">
      <stop offset="0%" stop-color="#a78bfa"/>
      <stop offset="100%" stop-color="#8b5cf6"/>
    </linearGradient>
    <linearGradient id="book-right" x1="0%" x2="100%" y1="0%" y2="100%">
      <stop offset="0%" stop-color="#6ee7d6"/>
      <stop offset="100%" stop-color="#4dccbd"/>
    </linearGradient>
  </defs>
  <ellipse cx="60" cy="112" fill="rgba(255,107,107,0.18)" rx="34" ry="6"/>
  <circle cx="60" cy="40" fill="url(#head)" r="24" stroke="#e85d04" stroke-width="2"/>
  <ellipse cx="49" cy="38" fill="#fff" rx="9" ry="10" stroke="#1e3a5f" stroke-width="1.5"/>
  <ellipse cx="71" cy="38" fill="#fff" rx="9" ry="10" stroke="#1e3a5f" stroke-width="1.5"/>
  <circle cx="51" cy="39" fill="#1e3a5f" r="5"/>
  <circle cx="73" cy="39" fill="#1e3a5f" r="5"/>
  <path d="M50 50 Q60 58 70 50" fill="#fff" stroke="#1e3a5f" stroke-linecap="round" stroke-width="1.5"/>
  <path d="M60 58 L34 64 L34 92 Q34 96 38 96 L58 92 Z" fill="url(#book-left)" stroke="#6d28d9" stroke-width="1.5"/>
  <path d="M60 58 L86 64 L86 92 Q86 96 82 96 L62 92 Z" fill="url(#book-right)" stroke="#0d9488" stroke-width="1.5"/>
  <rect fill="#fffbeb" height="28" rx="1" width="22" x="36" y="66"/>
  <rect fill="#fffbeb" height="28" rx="1" width="22" x="62" y="66"/>
  <circle cx="60" cy="12" fill="#ffd93d" r="11" stroke="#f59e0b" stroke-width="2"/>
  <path d="M60 3l2.2 4.4 4.9.7-3.5 3.4.8 4.9-4.4-2.3-4.4 2.3.8-4.9-3.5-3.4 4.9-.7z" fill="#fffbeb"/>
</svg>
